<?xml version="1.0" standalone="no"?>
<!DOCTYPE svg PUBLIC "-//W3C//DTD SVG 20010904//EN"
 "http://www.w3.org/TR/2001/REC-SVG-20010904/DTD/svg10.dtd">
<svg version="1.0" xmlns="http://www.w3.org/2000/svg"
 width="600.000000pt" height="500.000000pt" viewBox="0 0 600.000000 500.000000"
 preserveAspectRatio="xMidYMid meet">
<metadata>
Created by potrace 1.15, written by Peter Selinger 2001-2017
</metadata>
<g transform="translate(0.000000,500.000000) scale(0.100000,-0.100000)"
fill="#000000" stroke="none">
<path d="M0 2500 l0 -2500 1311 0 1311 0 -7 39 c-6 39 8 145 26 190 8 20 5 29
-21 56 -30 31 -30 32 -15 67 14 35 13 39 -10 80 -29 51 -32 111 -10 233 8 44
15 83 15 87 0 3 -15 9 -32 13 -18 3 -53 10 -78 16 l-46 10 3 46 c2 25 10 57
19 71 16 24 18 25 109 19 89 -6 93 -5 131 22 35 25 196 99 251 116 40 11 232
-46 275 -83 15 -12 21 -12 47 7 41 29 101 54 101 41 0 -5 6 -10 14 -10 21 0
66 -47 66 -70 0 -12 -18 -43 -40 -69 -22 -26 -40 -50 -40 -53 0 -19 251 68
375 130 350 174 612 433 780 771 388 778 143 1712 -578 2200 -320 217 -761
326 -1137 281 -439 -53 -817 -245 -1092 -555 -200 -224 -333 -476 -399 -754
-155 -650 80 -1332 600 -1745 104 -83 157 -116 295 -187 107 -56 125 -68 107
-74 l-23 -7 23 -25 c21 -22 22 -23 4 -17 -67 23 -235 112 -325 172 -498 331
-790 878 -790 1482 0 773 485 1447 1216 1689 218 72 308 86 564 86 197 0 239
-3 335 -23 561 -119 1005 -454 1256 -948 126 -249 189 -516 189 -804 0 -602
-293 -1152 -790 -1482 -163 -108 -375 -203 -531 -238 l-56 -13 -7 -81 c-7 -91
-16 -131 -52 -228 l-25 -67 25 -37 c27 -40 27 -40 -13 -93 l-25 -33 20 -17
c16 -12 23 -34 28 -81 4 -36 9 -80 13 -97 l5 -33 1314 0 1314 0 0 2500 0 2500
-3000 0 -3000 0 0 -2500z m2810 178 l0 -91 23 21 c49 46 124 37 152 -19 20
-37 13 -74 -18 -107 l-22 -23 21 -37 c28 -47 51 -62 64 -42 8 12 11 13 22 2
11 -11 9 -17 -10 -32 -34 -28 -61 -13 -101 54 l-34 57 -46 -3 -46 -3 -3 -57
c-2 -43 -7 -58 -17 -58 -17 0 -17 -5 -16 125 0 304 0 305 16 305 12 0 15 -17
15 -92z m-566 -110 c33 -91 63 -169 66 -172 3 -3 35 73 70 169 50 134 69 175
82 175 10 0 20 -10 23 -22 13 -58 75 -368 75 -377 0 -6 -7 -11 -15 -11 -8 0
-15 2 -15 3 0 7 -58 292 -66 321 -8 32 0 49 -93 -206 -43 -117 -60 -138 -80
-100 -5 9 -32 85 -61 167 -29 83 -56 153 -59 157 -4 5 -20 -58 -35 -140 -16
-81 -34 -157 -39 -170 -12 -27 -51 -39 -72 -22 -23 19 -18 33 10 26 32 -8 32
-7 76 207 45 222 49 222 133 -5z m1258 105 c3 -38 3 -38 51 -41 33 -2 47 -7
47 -18 0 -10 -13 -14 -50 -14 l-50 0 0 -94 c0 -52 4 -106 10 -120 11 -30 43
-34 77 -11 31 22 43 -2 13 -27 -30 -25 -82 -23 -106 3 -17 19 -19 41 -22 190
-3 145 -1 169 12 169 10 0 16 -12 18 -37z m-187 -53 c53 -26 79 -71 79 -135 0
-63 -27 -114 -74 -137 -66 -34 -151 -14 -193 43 -52 71 -21 194 57 230 53 24
80 24 131 -1z m573 0 c56 -25 88 -89 78 -158 -12 -89 -68 -136 -153 -129 -66
5 -100 28 -125 84 -36 81 -2 175 77 209 42 18 73 17 123 -6z m-193 -1900 c4
-47 8 -105 9 -130 l1 -45 -45 0 c-25 0 -57 4 -72 8 -28 7 -28 7 -28 -42 0 -62
-7 -81 -30 -81 -24 0 -130 87 -130 106 0 9 13 21 30 27 27 10 30 15 27 51 -2
34 2 42 23 53 14 7 45 13 70 13 l46 0 38 77 c44 90 50 87 61 -37z m-1265 -172
l55 -3 -3 -65 -4 -65 47 -23 c25 -12 44 -26 41 -30 -7 -12 -139 -14 -169 -3
-23 9 -27 16 -27 51 0 35 -3 40 -22 40 -39 0 -50 16 -64 86 -24 123 -22 126
39 67 48 -48 56 -52 107 -55z m1385 53 c3 -11 3 -30 0 -43 -3 -12 -1 -70 4
-128 12 -125 5 -143 -47 -116 -17 9 -34 16 -37 16 -4 0 -5 -31 -4 -70 5 -98
-3 -102 -97 -56 -42 20 -77 36 -79 34 -1 -2 -17 -31 -36 -66 -52 -96 -65 -87
-74 53 -4 63 -5 122 -1 130 5 14 20 16 86 13 l81 -3 -7 52 c-6 50 -5 53 21 63
14 5 44 10 66 10 24 0 39 5 39 13 0 6 11 36 25 65 25 53 49 67 60 33z"/>
<path d="M2862 2594 c-26 -18 -52 -65 -52 -94 0 -16 6 -20 33 -20 87 0 138 40
118 94 -15 38 -60 47 -99 20z"/>
<path d="M3210 2603 c-85 -31 -103 -177 -27 -223 51 -32 103 -26 143 14 30 30
34 40 34 88 0 63 -18 94 -66 114 -34 14 -58 16 -84 7z"/>
<path d="M3774 2596 c-17 -8 -39 -24 -48 -37 -19 -28 -21 -106 -4 -144 33 -73
168 -72 196 2 21 57 22 66 12 102 -19 72 -90 107 -156 77z"/>
<path d="M2815 808 c-40 -60 -85 -138 -85 -146 0 -4 5 0 10 8 7 11 10 7 11
-20 1 -34 2 -34 11 10 5 25 22 61 38 80 25 30 28 32 23 11 -4 -17 -3 -22 5
-17 7 4 12 14 12 22 0 8 5 14 10 14 11 0 13 -43 3 -78 -4 -18 -8 -21 -15 -10
-7 9 -8 8 -4 -5 3 -10 6 -32 6 -48 0 -49 17 -24 24 36 3 31 11 64 18 74 18 30
46 14 59 -33 15 -55 21 -64 29 -40 4 11 1 29 -8 42 -12 19 -12 22 0 22 8 0 19
-5 26 -12 7 -7 12 -8 12 -2 0 6 6 18 13 29 11 14 16 15 22 5 6 -9 4 -11 -5 -5
-8 5 -11 3 -8 -6 3 -8 11 -13 18 -11 7 2 9 -5 5 -20 -6 -22 -5 -22 9 1 7 14
11 31 8 39 -2 8 1 18 8 22 21 13 -33 41 -118 61 -42 11 -84 19 -93 19 -9 0
-29 -19 -44 -42z"/>
</g>
</svg>
